<svg xmlns="http://www.w3.org/2000/svg" width="100%" height="auto" viewBox="0 0 1024 1024" version="1.1">
	<path d="M 843.500 196.515 C 838 198.390, 833.275 199.960, 833 200.005 C 829.810 200.528, 826.908 201.383, 824.046 202.642 C 819.319 204.723, 813.698 206.555, 806.060 208.507 C 802.518 209.413, 798.018 210.965, 796.060 211.957 C 794.102 212.949, 790.590 214.078, 788.255 214.467 C 785.921 214.856, 783.757 215.585, 783.446 216.087 C 783.136 216.589, 781.334 217, 779.441 217 C 777.548 217, 776 217.477, 776 218.059 C 776 218.641, 775.550 218.840, 775 218.500 C 774.450 218.160, 774 218.359, 774 218.941 C 774 219.523, 773.212 220.003, 772.250 220.006 C 771.288 220.010, 769.211 220.685, 767.636 221.506 C 766.060 222.328, 763.788 223, 762.586 223 C 761.384 223, 759.973 223.413, 759.450 223.917 C 758.928 224.422, 757.150 225.045, 755.500 225.301 C 753.850 225.558, 750.925 226.474, 749 227.337 C 747.075 228.199, 742.125 229.864, 738 231.037 C 733.875 232.209, 728.925 233.861, 727 234.707 C 723.176 236.390, 720.790 237.175, 711 239.975 C 707.425 240.998, 700 243.437, 694.500 245.397 C 689 247.356, 683.661 248.968, 682.636 248.979 C 681.611 248.991, 679.136 249.855, 677.136 250.899 C 673.432 252.833, 660.906 257, 658.795 257 C 658.155 257, 655.802 257.876, 653.566 258.947 C 649.154 261.059, 635.205 265, 632.141 265 C 631.098 265, 629.685 265.675, 629 266.500 C 628.315 267.325, 626.996 268, 626.069 268 C 622.237 268, 620.315 270.585, 622.418 272.910 C 623.459 274.059, 624.899 275, 625.620 275 C 626.340 275, 627.379 275.840, 627.928 276.866 C 628.520 277.972, 630.512 278.986, 632.813 279.354 C 634.951 279.696, 637.850 280.881, 639.257 281.988 C 640.664 283.094, 642.286 284, 642.862 284 C 643.438 284, 647.842 286.264, 652.650 289.030 C 657.458 291.797, 662.433 294.321, 663.705 294.641 C 664.978 294.960, 666.266 295.622, 666.568 296.111 C 666.871 296.600, 667.879 297.016, 668.809 297.036 C 672.950 297.124, 676.317 301.509, 675.093 305.219 C 673.685 309.486, 666.300 321, 664.972 321 C 664.437 321, 664 321.814, 664 322.809 C 664 323.804, 662.387 327.291, 660.416 330.559 C 658.445 333.826, 655.965 338.400, 654.905 340.721 C 653.844 343.043, 652.082 345.421, 650.988 346.006 C 649.895 346.592, 649 347.928, 649 348.976 C 649 350.024, 648.499 351.192, 647.887 351.570 C 647.274 351.948, 645.892 354.113, 644.816 356.379 C 643.739 358.646, 641.092 363.200, 638.934 366.500 C 636.777 369.800, 633.626 375.313, 631.933 378.750 C 630.240 382.188, 628.528 385, 628.127 385 C 627.726 385, 626.296 387.099, 624.949 389.664 C 620.707 397.743, 619.735 399.368, 618.096 401.128 C 617.218 402.070, 614.352 407.055, 611.727 412.205 C 609.103 417.355, 605.834 422.778, 604.464 424.256 C 603.093 425.733, 601.497 427.968, 600.917 429.221 C 600.336 430.475, 598.553 433.750, 596.955 436.500 C 595.357 439.250, 593.609 442.488, 593.070 443.696 C 592.532 444.903, 590.495 448.161, 588.545 450.935 C 586.595 453.710, 585 456.402, 585 456.918 C 585 457.435, 584.275 458.582, 583.388 459.469 C 582.502 460.355, 579.079 466.125, 575.781 472.290 C 572.484 478.456, 569.167 484.202, 568.411 485.059 C 566.883 486.791, 562.765 493.871, 560.587 498.510 C 559.809 500.166, 558.084 502.696, 556.753 504.133 C 555.421 505.569, 552.929 509.654, 551.214 513.210 C 549.499 516.766, 547.399 520.254, 546.548 520.960 C 545.697 521.667, 545 522.706, 545 523.269 C 545 523.832, 543.482 526.590, 541.628 529.396 C 539.773 532.203, 536.791 537.425, 535.003 541 C 533.214 544.575, 531.356 547.650, 530.875 547.833 C 530.394 548.017, 530 548.609, 530 549.150 C 530 549.691, 528.875 551.608, 527.500 553.411 C 526.125 555.214, 525 556.952, 525 557.274 C 525 557.595, 523.200 560.569, 521 563.881 C 518.800 567.193, 516.998 570.262, 516.995 570.701 C 516.992 571.141, 515.898 572.850, 514.563 574.500 C 511.687 578.056, 510.825 577.525, 506.443 569.500 C 504.942 566.750, 502.281 562.250, 500.531 559.500 C 496.548 553.239, 487 536.981, 487 536.457 C 487 536.243, 485.200 533.283, 483 529.879 C 480.800 526.475, 479 523.140, 479 522.467 C 479 521.795, 478.387 520.736, 477.638 520.114 C 475.994 518.750, 467 503.682, 467 502.293 C 467 500.974, 463.641 498, 462.151 498 C 461.043 498, 451.231 506.602, 434.528 522.214 C 426.704 529.528, 426.818 528.323, 432.978 538.500 C 434.643 541.250, 437.307 546.041, 438.900 549.147 C 440.493 552.252, 443.804 557.877, 446.259 561.647 C 448.714 565.416, 451.040 569.512, 451.429 570.750 C 451.817 571.987, 452.554 573, 453.067 573 C 453.580 573, 454 573.512, 454 574.139 C 454 574.765, 456.397 578.927, 459.327 583.389 C 464.189 590.791, 466.463 594.664, 473.777 608 C 475.135 610.475, 477.712 614.750, 479.504 617.500 C 482.602 622.252, 483.954 624.550, 489.800 635 C 491.185 637.475, 493.371 641.179, 494.659 643.230 C 495.947 645.282, 497 647.271, 497 647.651 C 497 648.032, 497.771 649.195, 498.714 650.236 C 499.656 651.278, 502.707 656.038, 505.493 660.815 C 512.006 671.983, 512.832 671.994, 518.723 661 C 521.228 656.325, 524.341 651.228, 525.639 649.673 C 526.938 648.119, 528 646.409, 528 645.875 C 528 645.340, 529.701 642.337, 531.780 639.201 C 533.860 636.066, 536.181 631.925, 536.938 630 C 537.695 628.075, 539.594 625.129, 541.158 623.452 C 542.721 621.776, 544 619.717, 544 618.877 C 544 618.036, 545.087 616.328, 546.415 615.079 C 547.744 613.831, 549.118 611.665, 549.470 610.265 C 549.821 608.866, 552.261 604.296, 554.892 600.110 C 557.524 595.925, 562.544 587.550, 566.049 581.500 C 569.553 575.450, 573.001 570.140, 573.710 569.700 C 574.420 569.260, 575 568.040, 575 566.989 C 575 565.938, 577.025 562.592, 579.500 559.553 C 581.975 556.514, 584 553.521, 584 552.900 C 584 551.319, 588.148 543.947, 590.250 541.793 C 591.212 540.807, 592 539.393, 592 538.650 C 592 537.908, 593.416 535.345, 595.147 532.955 C 596.879 530.565, 599.855 525.660, 601.762 522.055 C 603.669 518.450, 607.001 512.575, 609.167 509 C 611.332 505.425, 613.643 501.604, 614.302 500.509 C 614.961 499.414, 617.075 496.056, 619 493.047 C 623.424 486.131, 624.020 485.142, 626.677 480.319 C 627.874 478.145, 629.562 475.779, 630.427 475.061 C 631.292 474.343, 632 473.161, 632 472.435 C 632 470.054, 636.028 464.226, 638.035 463.701 C 639.395 463.345, 640.010 462.312, 640.034 460.344 C 640.073 457.024, 646.207 445.556, 650.804 440.210 C 652.558 438.169, 655.583 433.350, 657.526 429.500 C 665.488 413.723, 673.048 401.281, 676.932 397.563 C 678.619 395.948, 680 393.788, 680 392.763 C 680 390.227, 682.903 384.779, 685.070 383.249 C 686.044 382.561, 687.131 380.679, 687.485 379.068 C 687.839 377.457, 688.775 375.602, 689.564 374.947 C 690.354 374.291, 691 373.406, 691 372.980 C 691 372.050, 698.993 358.715, 699.978 358 C 700.357 357.725, 702.378 354.350, 704.469 350.500 C 706.559 346.650, 708.884 343.140, 709.635 342.700 C 710.386 342.260, 711 341.274, 711 340.507 C 711 338.627, 715.165 331.284, 722.580 320.094 C 727.640 312.458, 728.744 310.518, 728.389 309.881 C 728.199 309.540, 729.556 307.704, 731.405 305.801 C 733.254 303.897, 735.096 300.801, 735.499 298.920 C 735.901 297.039, 736.724 294.890, 737.326 294.143 C 737.929 293.397, 738.889 291.999, 739.461 291.036 C 743.353 284.480, 746.441 280.778, 748.787 279.858 C 761.368 274.923, 773.923 271, 777.137 271 C 780.037 271, 781.567 270.363, 783.212 268.472 C 784.922 266.504, 786.234 265.992, 789.123 266.162 C 791.165 266.283, 793.542 265.795, 794.406 265.078 C 797.900 262.178, 797.120 266.901, 793.078 273.122 C 790.835 276.574, 789 279.938, 789 280.598 C 789 281.259, 787.459 284.089, 785.576 286.888 C 783.692 289.686, 782.002 292.769, 781.820 293.738 C 781.637 294.707, 780.478 295.944, 779.244 296.487 C 778.010 297.030, 777 297.827, 777 298.259 C 777 300.452, 766.229 320.814, 763.119 324.500 C 762.191 325.600, 760.368 328.525, 759.067 331 C 757.767 333.475, 756.157 336.175, 755.490 337 C 754.823 337.825, 752.584 341.762, 750.515 345.750 C 748.445 349.738, 746.371 353, 745.904 353 C 745.437 353, 744.088 355.250, 742.905 358 C 741.722 360.750, 740.394 363, 739.955 363 C 739.516 363, 737.696 366.170, 735.910 370.045 C 734.124 373.919, 732.140 377.407, 731.500 377.795 C 730.861 378.183, 729.653 379.850, 728.817 381.500 C 725.565 387.913, 718.638 399.665, 716.158 402.975 C 714.726 404.886, 712.816 407.811, 711.913 409.475 C 708.849 415.121, 697.181 435.077, 696.234 436.292 C 695.715 436.956, 693.790 440.425, 691.955 444 C 690.120 447.575, 687.198 452.300, 685.463 454.500 C 683.728 456.700, 681.532 460.147, 680.583 462.159 C 679.634 464.172, 677.990 466.604, 676.929 467.564 C 675.868 468.524, 675 469.902, 675 470.625 C 675 472.050, 671.890 477.916, 668.895 482.137 C 667.075 484.704, 667.786 491, 669.897 491 C 671.246 491, 681 500.222, 681 501.497 C 681 502.204, 682.013 503.056, 683.250 503.389 C 684.487 503.722, 688.863 507.134, 692.974 510.971 C 701.028 518.488, 702.723 518.771, 705.623 513.081 C 706.240 511.870, 707.702 509.777, 708.873 508.432 C 710.043 507.086, 711 505.595, 711 505.118 C 711 503.233, 716.233 495.026, 717.095 495.559 C 717.601 495.871, 718.276 495.311, 718.595 494.313 C 719.711 490.833, 724.488 481.455, 728.179 475.500 C 730.224 472.200, 732.871 467.700, 734.063 465.500 C 735.254 463.300, 737.475 459.925, 738.998 458 C 740.521 456.075, 742.459 452.844, 743.304 450.820 C 744.148 448.796, 747.630 442.721, 751.040 437.320 C 754.451 431.919, 758.575 425.025, 760.206 422 C 761.837 418.975, 763.973 415.825, 764.952 415 C 765.932 414.175, 767.185 412.150, 767.737 410.500 C 768.289 408.850, 771.257 403.450, 774.334 398.500 C 777.410 393.550, 781.181 387.076, 782.714 384.113 C 784.246 381.150, 786.737 377.390, 788.250 375.757 C 789.763 374.124, 791.004 372.049, 791.009 371.144 C 791.022 368.956, 796.229 359.985, 798.863 357.614 C 800.935 355.749, 801.021 355.776, 806.729 360.104 C 809.903 362.511, 816.775 367.347, 822 370.851 C 827.225 374.354, 832.625 378.233, 834 379.470 C 835.375 380.707, 839.425 383.657, 843 386.025 C 846.575 388.393, 853.255 393.208, 857.845 396.726 C 868.637 404.997, 870.732 405.835, 872.037 402.403 C 872.575 400.989, 872.834 399.532, 872.614 399.166 C 872.394 398.800, 871.917 392.650, 871.555 385.500 C 870.778 370.188, 869.055 344.354, 868.620 341.500 C 868.452 340.400, 867.987 335.450, 867.586 330.500 C 867.185 325.550, 866.667 319.925, 866.436 318 C 865.964 314.068, 865.602 308.570, 864.068 282 C 862.784 259.765, 862.543 256.647, 859.920 228.500 C 858.793 216.400, 857.779 204.197, 857.668 201.382 C 857.303 192.205, 856.726 192.007, 843.500 196.515 M 152.392 231.420 C 151.846 232.843, 153.823 237.718, 156.748 242.162 C 158.913 245.452, 167.300 259.791, 170.407 265.514 C 171.008 266.622, 172.512 268.941, 173.750 270.668 C 174.988 272.396, 176 274.286, 176 274.870 C 176 275.453, 177.249 277.409, 178.775 279.215 C 180.301 281.022, 182.626 284.725, 183.942 287.444 C 185.258 290.163, 188.001 294.768, 190.038 297.676 C 192.076 300.584, 194.324 304.434, 195.035 306.232 C 195.746 308.029, 198.392 312.624, 200.914 316.442 C 203.436 320.260, 207.075 326.226, 209 329.698 C 212.727 336.421, 224.209 355.849, 226.891 359.972 C 227.776 361.331, 230.075 365.222, 232 368.617 C 233.925 372.013, 237.160 377.279, 239.190 380.321 C 241.219 383.362, 244.354 388.697, 246.156 392.175 C 247.958 395.654, 250.822 400.331, 252.520 402.570 C 254.219 404.808, 256.242 408.183, 257.017 410.070 C 257.792 411.956, 259.905 415.447, 261.713 417.827 C 263.521 420.206, 265 422.523, 265 422.974 C 265 423.426, 266.782 426.729, 268.960 430.314 C 271.138 433.898, 273.211 437.994, 273.568 439.416 C 273.925 440.837, 274.599 442, 275.066 442 C 275.533 442, 277.113 444.137, 278.575 446.750 C 280.038 449.363, 282.879 453.975, 284.889 457 C 286.899 460.025, 289.199 463.850, 290.001 465.500 C 290.803 467.150, 292.450 469.852, 293.661 471.504 C 294.872 473.157, 296.365 475.632, 296.979 477.004 C 297.593 478.377, 300.211 482.926, 302.797 487.112 C 305.384 491.299, 310.389 499.520, 313.920 505.381 C 317.450 511.241, 320.864 516.473, 321.506 517.005 C 322.982 518.230, 330.663 512.619, 341.079 502.710 C 345.248 498.745, 350.567 493.744, 352.900 491.599 C 358.093 486.822, 357.940 485.508, 351.001 475.359 C 345.489 467.299, 342.829 461.610, 343.613 459.566 C 343.922 458.761, 343.324 457.920, 342.187 457.559 C 340.430 457.002, 335 450.349, 335 448.754 C 335 448.403, 333.159 445.052, 330.909 441.308 C 328.659 437.563, 326.439 433.825, 325.976 433 C 325.513 432.175, 321.933 426.325, 318.021 420 C 307.137 402.403, 299.570 389.830, 295.753 383 C 292.316 376.849, 286.860 367.650, 282.572 360.773 C 280.607 357.623, 279 354.656, 279 354.178 C 279 353.701, 278.100 352.495, 277 351.500 C 275.900 350.505, 275 349.374, 275 348.989 C 275 347.999, 266.201 332.869, 260.656 324.325 C 258.095 320.379, 256 316.701, 256 316.152 C 256 315.603, 254.976 313.881, 253.725 312.327 C 252.474 310.772, 250.798 308.150, 250.002 306.500 C 249.205 304.850, 246.759 300.800, 244.565 297.500 C 240.911 292.004, 234 278.977, 234 277.585 C 234 277.263, 242.662 277.033, 253.250 277.073 C 276.085 277.160, 276.369 277.261, 282.641 287.557 C 290.557 300.553, 292.860 304.496, 296.041 310.500 C 297.790 313.800, 300.319 317.963, 301.661 319.750 C 303.004 321.538, 304.779 324.463, 305.606 326.250 C 306.434 328.038, 309.783 333.550, 313.050 338.500 C 316.317 343.450, 319.828 349.075, 320.852 351 C 326.256 361.160, 332.407 371.734, 333.941 373.500 C 335.466 375.256, 339.066 381.322, 346.997 395.500 C 348.227 397.700, 350.052 400.652, 351.051 402.061 C 352.050 403.470, 353.180 405.868, 353.562 407.392 C 353.945 408.915, 354.886 410.403, 355.655 410.698 C 356.424 410.993, 358.242 413.319, 359.696 415.867 C 361.149 418.415, 362.894 421.175, 363.574 422 C 364.253 422.825, 366.730 427.098, 369.078 431.495 C 371.427 435.893, 373.944 440.087, 374.674 440.817 C 375.403 441.546, 376 442.556, 376 443.061 C 376 443.566, 378.022 447.134, 380.493 450.990 C 386.946 461.056, 384.871 461.908, 410.342 438.724 C 421.061 428.968, 422.810 424.051, 417.004 420 C 416.097 419.367, 407 403.317, 407 402.349 C 407 401.953, 406.132 400.700, 405.071 399.564 C 404.010 398.429, 401.728 394.800, 400 391.500 C 398.272 388.200, 396.064 384.600, 395.094 383.500 C 394.123 382.400, 392.568 379.832, 391.638 377.792 C 390.708 375.753, 389.497 373.807, 388.948 373.468 C 388.399 373.129, 386.424 369.821, 384.559 366.118 C 382.695 362.415, 380.456 358.793, 379.584 358.070 C 378.713 357.347, 377.992 356.248, 377.982 355.628 C 377.972 355.007, 375.497 350.726, 372.482 346.113 C 369.467 341.500, 367 337.328, 367 336.842 C 367 335.990, 365.362 333.229, 358.489 322.500 C 356.728 319.750, 353.645 314.575, 351.640 311 C 346.463 301.772, 343.326 296.375, 339.147 289.503 C 334.410 281.714, 334.064 281.134, 330.395 274.833 C 323.152 262.392, 316.989 252.331, 315.164 249.968 C 314.089 248.575, 312.557 245.875, 311.759 243.968 C 310.962 242.061, 309.565 239.882, 308.655 239.128 C 307.745 238.373, 307 237.219, 307 236.565 C 307 235.910, 305.729 234.157, 304.176 232.669 L 301.353 229.964 227.131 230.019 C 165.889 230.065, 152.818 230.310, 152.392 231.420 M 505.500 373.131 C 501.048 376.746, 491.487 385.548, 467.011 408.563 C 462.880 412.448, 454.069 420.395, 447.432 426.224 C 440.794 432.053, 433.860 438.549, 432.021 440.661 C 430.183 442.772, 427.682 445.175, 426.464 446 C 425.246 446.825, 419.299 452.136, 413.249 457.801 C 407.200 463.467, 400.731 469.221, 398.875 470.589 C 397.019 471.956, 392.800 475.871, 389.499 479.288 C 382.751 486.274, 362.472 505.052, 360.285 506.339 C 354.311 509.855, 331.596 534.033, 332.707 535.694 C 333.370 536.687, 335.030 539.856, 336.395 542.735 C 337.759 545.615, 339.973 549.440, 341.313 551.235 C 342.654 553.031, 344.483 556.075, 345.378 558 C 347.645 562.874, 354.275 571.431, 356.037 571.758 C 356.842 571.907, 360.542 569.210, 364.259 565.765 C 367.977 562.319, 372.487 558.276, 374.282 556.779 C 377.038 554.481, 380.792 550.944, 385.500 546.209 C 386.828 544.873, 398.716 533.935, 413.499 520.448 C 420.098 514.426, 426.215 508.825, 427.091 508 C 430.232 505.043, 459.799 477.935, 475.629 463.500 C 480.454 459.100, 485.960 453.813, 487.865 451.750 C 489.770 449.688, 491.703 448, 492.162 448 C 492.621 448, 497.160 443.954, 502.248 439.009 C 507.337 434.063, 511.726 430.013, 512.003 430.009 C 512.280 430.004, 517.905 434.986, 524.503 441.080 C 544.049 459.131, 555.657 469, 557.343 469 C 558.966 469, 565.125 460.632, 568.753 453.500 C 569.872 451.300, 571.735 448.643, 572.894 447.595 C 574.052 446.547, 575 445.112, 575 444.407 C 575 443.701, 576.350 440.663, 578 437.657 C 582.223 429.962, 582.652 430.910, 570.011 419.977 C 561.726 412.810, 537.366 390.650, 534.986 388.114 C 534.153 387.226, 529.655 383.125, 524.991 379 C 520.326 374.875, 515.913 370.938, 515.184 370.250 C 513 368.192, 510.764 368.857, 505.500 373.131 M 637.060 494.418 C 633.077 499.810, 632.249 501.157, 624.705 514.500 C 618.297 525.836, 618.135 526.188, 618.678 527.604 C 618.964 528.349, 626.831 535.830, 636.160 544.229 C 662.183 567.658, 667.240 572, 668.501 572 C 670.354 572, 675.511 564.962, 678.797 557.948 C 680.458 554.402, 682.984 550.409, 684.409 549.076 C 685.834 547.742, 687 545.982, 687 545.164 C 687 544.345, 688.155 541.706, 689.566 539.298 C 693.235 533.036, 694.278 534.385, 666.916 510 C 662.287 505.875, 655.435 499.462, 651.689 495.750 C 643.404 487.540, 642.221 487.432, 637.060 494.418 M 381.265 571.619 C 372.594 579.659, 365.355 586.859, 365.177 587.618 C 364.804 589.211, 369.503 599.575, 371.024 600.515 C 371.586 600.862, 373.443 603.925, 375.151 607.323 C 376.860 610.720, 378.586 613.725, 378.987 614 C 379.388 614.275, 381.646 617.875, 384.004 622 C 390.016 632.515, 395.973 642.632, 404.023 656 C 407.831 662.325, 411.972 669.222, 413.224 671.326 C 414.476 673.430, 416.890 677.255, 418.589 679.826 C 420.288 682.397, 422.525 686.300, 423.560 688.500 C 424.595 690.700, 427.142 694.937, 429.221 697.916 C 431.299 700.894, 433 703.738, 433 704.236 C 433 704.733, 434.350 707.102, 436 709.500 C 437.650 711.898, 439 714.126, 439 714.450 C 439 714.774, 440.228 716.943, 441.730 719.270 C 445.814 725.600, 446.819 727.257, 448.234 730 C 448.943 731.375, 450.756 734.404, 452.262 736.730 C 453.768 739.057, 455 741.190, 455 741.470 C 455 741.750, 457.025 745.139, 459.500 749 C 461.975 752.861, 464 756.396, 464 756.854 C 464 757.638, 467.239 762.811, 476.168 776.281 C 478.276 779.461, 480 782.407, 480 782.827 C 480 783.248, 482.025 786.876, 484.500 790.891 C 486.975 794.905, 489 798.391, 489 798.638 C 489 798.884, 490.688 801.728, 492.750 804.956 C 496.862 811.392, 499.138 815.174, 503.009 822 C 512.132 838.088, 512.721 838.096, 520.958 822.245 C 522.746 818.804, 524.618 815.736, 525.119 815.426 C 525.620 815.117, 526.636 813.414, 527.376 811.642 C 528.117 809.870, 529.347 807.764, 530.111 806.960 C 530.875 806.157, 532.175 804.150, 533 802.500 C 534.593 799.314, 537.807 794.092, 540.664 790.050 C 541.616 788.702, 543.857 784.694, 545.644 781.142 C 547.432 777.590, 549.255 774.417, 549.697 774.092 C 550.139 773.766, 551.518 771.475, 552.762 769 C 554.007 766.525, 557.030 761.350, 559.481 757.500 C 561.932 753.650, 565.189 748.307, 566.719 745.627 C 568.248 742.947, 570.962 738.780, 572.750 736.368 C 574.538 733.956, 576 731.412, 576 730.714 C 576 730.016, 576.784 728.332, 577.741 726.973 C 579.913 723.890, 582.299 719.715, 584.939 714.382 C 586.060 712.117, 587.683 709.678, 588.546 708.962 C 589.409 708.245, 590.756 706.273, 591.539 704.580 C 593.225 700.932, 596.326 695.532, 597.752 693.761 C 598.310 693.068, 600.039 690.025, 601.594 687 C 603.148 683.975, 606.688 678.121, 609.460 673.991 C 612.232 669.861, 615.625 664.300, 617 661.633 C 618.375 658.967, 620.513 656.311, 621.750 655.732 C 623.179 655.063, 624 653.791, 624 652.244 C 624 650.905, 624.841 648.614, 625.869 647.154 C 626.898 645.694, 628.751 642.475, 629.987 640 C 631.224 637.525, 633.943 632.975, 636.030 629.890 C 638.117 626.804, 640.975 622.009, 642.382 619.233 C 643.788 616.458, 645.290 614.032, 645.719 613.844 C 646.149 613.655, 647.602 611.025, 648.949 608 C 650.295 604.975, 652.160 601.600, 653.093 600.500 C 660.937 591.250, 660.561 587.881, 650.633 578.449 C 623.766 552.926, 624.890 552.995, 612.500 576.111 C 611.400 578.163, 609.074 582.492, 607.332 585.731 C 605.589 588.970, 603.451 592.210, 602.582 592.932 C 601.712 593.654, 601 594.687, 601 595.228 C 601 596.672, 588.301 617.505, 586.520 618.983 C 585.684 619.677, 584.990 620.977, 584.978 621.872 C 584.966 622.768, 584.076 624.625, 583 626 C 581.924 627.375, 581.034 628.950, 581.021 629.500 C 581.008 630.050, 579.303 632.975, 577.231 636 C 575.160 639.025, 572.901 642.625, 572.213 644 C 571.524 645.375, 569.862 648.300, 568.520 650.500 C 567.177 652.700, 565.567 655.737, 564.942 657.250 C 564.316 658.763, 563.372 660, 562.843 660 C 562.315 660, 562.160 660.450, 562.500 661 C 562.840 661.550, 562.641 662, 562.059 662 C 561.477 662, 561 662.430, 561 662.956 C 561 663.928, 557.022 670.336, 554.811 672.925 C 554.142 673.708, 552.306 677.075, 550.730 680.407 C 549.154 683.739, 547.506 686.698, 547.067 686.983 C 546.628 687.267, 545.299 689.413, 544.114 691.750 C 542.929 694.087, 541.605 696, 541.172 696 C 540.739 696, 539.551 697.913, 538.532 700.250 C 537.513 702.587, 534.915 707.174, 532.759 710.441 C 530.604 713.709, 527.759 718.515, 526.439 721.121 C 525.118 723.726, 523.608 726.124, 523.083 726.449 C 522.558 726.773, 520.973 729.393, 519.561 732.269 C 513.289 745.050, 512.062 745.227, 505.779 734.261 C 500.715 725.422, 495.458 716.666, 493.016 713 C 492.100 711.625, 489.828 707.575, 487.967 704 C 485.052 698.397, 483.365 695.805, 479.181 690.500 C 478.748 689.950, 477.702 688.150, 476.858 686.500 C 474.007 680.928, 469.748 673.509, 468.534 672 C 467.529 670.752, 463.514 663.970, 457.582 653.500 C 456.959 652.400, 455.223 649.596, 453.724 647.270 C 452.226 644.943, 451 642.788, 451 642.479 C 451 642.171, 450.161 640.700, 449.135 639.210 C 443.822 631.492, 439.784 624.663, 438.814 621.755 C 438.216 619.965, 436.716 617.375, 435.479 616 C 434.243 614.625, 431.432 610.350, 429.232 606.500 C 418.166 587.129, 410.434 573.999, 407.383 569.396 C 405.522 566.590, 404 563.959, 404 563.551 C 404 561.967, 399.790 557, 398.447 557 C 397.668 557, 389.936 563.579, 381.265 571.619" stroke="none" fill="black" fill-rule="evenodd"/>
</svg>